<svg xmlns="http://www.w3.org/2000/svg" xmlns:xlink="http://www.w3.org/1999/xlink" viewBox="0,0,256,256" width="100px" height="100px" fill-rule="nonzero"><g fill="#ffffff" fill-rule="nonzero" stroke="none" stroke-width="1" stroke-linecap="butt" stroke-linejoin="miter" stroke-miterlimit="10" stroke-dasharray="" stroke-dashoffset="0" font-family="none" font-weight="none" font-size="none" text-anchor="none" style="mix-blend-mode: normal"><g transform="scale(2.56,2.56)"><path d="M50.26758,8c-12.683,0 -23,10.318 -23,23c0,12.3466 9.77967,22.4487 22,22.97461v5.11719c-2.83291,0.47865 -5,2.94099 -5,5.9082v20c0,3.309 2.691,6 6,6c3.308,0 6,-2.691 6,-6v-20c0,-2.96788 -2.16616,-5.43033 -5,-5.9082v-5.11719c12.21945,-0.5259 22,-10.62801 22,-22.97461c0,-12.682 -10.317,-23 -23,-23zM50.26758,10c11.579,0 21,9.42 21,21c0,11.58 -9.421,21 -21,21c-11.579,0 -21,-9.42 -21,-21c0,-11.58 9.421,-21 21,-21zM50.26758,13c-9.925,0 -18,8.075 -18,18c0,9.925 8.075,18 18,18c9.925,0 18,-8.075 18,-18c0,-9.925 -8.075,-18 -18,-18zM50.26758,14c9.374,0 17,7.626 17,17c0,9.374 -7.626,17 -17,17c-9.374,0 -17,-7.626 -17,-17c0,-9.374 7.626,-17 17,-17zM50.26758,61c2.206,0 4,1.794 4,4h-7.5c-0.276,0 -0.5,0.224 -0.5,0.5c0,0.276 0.224,0.5 0.5,0.5h7.5v19c0,2.206 -1.794,4 -4,4c-2.206,0 -4,-1.794 -4,-4v-19.5v-0.5c0,-2.206 1.794,-4 4,-4zM47.76758,68c-0.276,0 -0.5,0.224 -0.5,0.5v11c0,0.276 0.224,0.5 0.5,0.5c0.276,0 0.5,-0.224 0.5,-0.5v-11c0,-0.276 -0.224,-0.5 -0.5,-0.5zM47.76758,81c-0.276,0 -0.5,0.224 -0.5,0.5v2c0,0.276 0.224,0.5 0.5,0.5c0.276,0 0.5,-0.224 0.5,-0.5v-2c0,-0.276 -0.224,-0.5 -0.5,-0.5z"></path></g></g></svg>